<svg width="511.999" height="511.999" xmlns="http://www.w3.org/2000/svg">

 <g>
  <title>background</title>
  <rect fill="none" id="canvas_background" height="402" width="582" y="-1" x="-1"/>
 </g>
 <g>
  <title>Layer 1</title>
  <g stroke="null" id="svg_22">
   <path stroke="null" id="svg_1" fill="#E6E6E6" d="m88.986871,1.846l-77.977674,0c-2.429075,0 -4.397804,1.971463 -4.397804,4.400538l0,14.631092l86.775626,0l0,-14.631092c0.000195,-2.429271 -1.971268,-4.400538 -4.400148,-4.400538zm-60.049547,8.803811c-1.162683,0 -2.106227,-0.943545 -2.106227,-2.106227s0.943545,-2.106227 2.106227,-2.106227c1.162683,0 2.106227,0.943545 2.106227,2.106227s-0.94374,2.106227 -2.106227,2.106227zm42.674539,0c-1.162683,0 -2.106227,-0.943545 -2.106227,-2.106227s0.943545,-2.106227 2.106227,-2.106227s2.106227,0.943545 2.106227,2.106227s-0.94374,2.106227 -2.106227,2.106227z"/>
   <path stroke="null" id="svg_2" fill="#3A5BBC" d="m99.902378,21.899885l-6.655592,34.707438l2.71833,36.091993c0.199412,2.648214 -1.895683,4.908931 -4.555029,4.908931l-82.824106,0c-2.656612,0 -4.754441,-2.260718 -4.555029,-4.908931l2.72126,-36.091993l-6.655592,-34.707438c-0.626165,-3.263246 1.875956,-6.293487 5.20092,-6.293487l89.401379,0c3.327698,0 5.829625,3.030241 5.203459,6.293487z"/>
   <path stroke="null" id="svg_3" fill="#518EF8" d="m91.410087,97.608052l-82.824106,0c-2.656612,0 -4.754441,-2.260718 -4.555029,-4.908931l2.72126,-36.091993l47.740696,0l38.754074,0l2.71833,36.091993c0.199412,2.648214 -1.895683,4.908931 -4.555224,4.908931z"/>
   <g stroke="null" id="svg_4">
    <path stroke="null" id="svg_5" fill="#FFFFFF" d="m48.314263,47.550584c0,-6.774732 -5.669079,-12.286195 -12.637168,-12.286195s-12.637168,5.511464 -12.637168,12.286195l4.212455,0c0,-4.451905 3.779451,-8.073741 8.424909,-8.073741s8.424909,3.621836 8.424909,8.073741s-3.779451,8.073741 -8.424909,8.073741l-3.931598,0l0,4.212455l3.931598,0c4.645458,0 8.424909,3.621836 8.424909,8.073741c0,4.451905 -3.779451,8.073741 -8.424909,8.073741s-8.424909,-3.621836 -8.424909,-8.073741l-4.212455,0c0,6.774732 5.669079,12.286195 12.637168,12.286195s12.637168,-5.511464 12.637168,-12.286195c0,-4.231009 -2.211304,-7.969055 -5.568885,-10.179968c3.357776,-2.210718 5.568885,-5.948959 5.568885,-10.179968z"/>
    <polygon stroke="null" id="svg_6" fill="#FFFFFF" points="56.50128513595166,42.44282650669646 58.66219716656781,46.05880485686197 66.9894581279342,41.08288051247922 66.9894581279342,78.09048903594811 71.20170961976703,78.09048903594811 71.20170961976703,33.658546932345814 "/>
   </g>
   <g stroke="null" id="svg_7"/>
   <g stroke="null" id="svg_8"/>
   <g stroke="null" id="svg_9"/>
   <g stroke="null" id="svg_10"/>
   <g stroke="null" id="svg_11"/>
   <g stroke="null" id="svg_12"/>
   <g stroke="null" id="svg_13"/>
   <g stroke="null" id="svg_14"/>
   <g stroke="null" id="svg_15"/>
   <g stroke="null" id="svg_16"/>
   <g stroke="null" id="svg_17"/>
   <g stroke="null" id="svg_18"/>
   <g stroke="null" id="svg_19"/>
   <g stroke="null" id="svg_20"/>
   <g stroke="null" id="svg_21"/>
  </g>
 </g>
</svg>