<svg width="512" height="512" xmlns="http://www.w3.org/2000/svg">

 <g>
  <title>background</title>
  <rect fill="none" id="canvas_background" height="402" width="582" y="-1" x="-1"/>
 </g>
 <g>
  <title>Layer 1</title>
  <g stroke="null" id="svg_24">
   <path stroke="null" id="svg_1" fill="#CCCCCC" d="m89.734562,47.385738l0,43.055896l-13.531152,-2.504575l-5.965402,-7.155871l-25.134765,-27.942595l21.339823,-15.162558c10.689495,14.109572 11.026577,10.669911 11.026577,10.669911s5.28016,-7.88305 12.054242,-1.109166l0.210676,0.148957z"/>
   <path stroke="null" id="svg_2" fill="#518EF8" d="m38.083867,44.134202l44.37277,57.109287c-0.25835,0.025321 -0.51947,0.039366 -0.78336,0.039366l-72.544241,0l28.95483,-57.148653z"/>
   <path stroke="null" id="svg_3" fill="#28B446" d="m66.443264,37.676035l-65.996264,55.545338l0,-73.164796c0,-4.453281 3.610971,-8.061482 8.061482,-8.061482l48.126962,0c-2.066605,3.552021 5.596076,5.831875 5.596076,10.237481c0,4.433894 2.120016,11.874623 4.211745,15.443459z"/>
   <path stroke="null" id="svg_4" fill="#F2F2F2" d="m89.734562,90.441633l0,2.77974c0,4.186622 -3.192586,7.629052 -7.277925,8.022116l-37.131442,-36.642634l8.988062,-9.108731l20.744588,20.469423l1.145564,1.131519l13.531152,13.348566z"/>
   <path stroke="null" id="svg_5" fill="#FFD837" d="m64.157674,45.515565l-9.844417,9.976361l-8.988062,9.108731l-36.196158,36.682197l-0.620555,0c-4.450511,0 -8.061482,-3.610971 -8.061482,-8.061482l56.230579,-56.983079c1.052986,1.802716 8.294512,-0.022551 9.765883,1.437544l2.704173,3.476059c1.319644,1.40708 -6.12425,2.869945 -4.989961,4.363669z"/>
   <path stroke="null" id="svg_6" fill="#FFFFFF" d="m21.506119,45.058012c-7.08347,0 -12.846108,-5.762638 -12.846108,-12.846108s5.762638,-12.846108 12.846108,-12.846108c3.428979,0 6.654007,1.336855 9.081828,3.764478l-2.978547,2.977953c-1.631603,-1.631999 -3.799294,-2.530687 -6.103281,-2.530687c-4.761085,0 -8.634166,3.873278 -8.634166,8.634166s3.873278,8.634166 8.634166,8.634166c4.034697,0 7.432223,-2.781718 8.37443,-6.528392l-8.37443,0l0,-4.211745l12.846108,0l0,2.105971c-0.000198,7.083667 -5.762638,12.846306 -12.846108,12.846306z"/>
   <path stroke="null" id="svg_7" fill="#F14336" d="m56.635444,11.995292c4.169609,-7.171301 11.939112,-11.995292 20.834398,-11.995292c13.300892,0 24.083164,10.782272 24.083164,24.083164c0,3.335806 -0.679505,6.51138 -1.903801,9.400711c-1.227066,2.889331 -3.001691,5.489452 -5.191735,7.66822c-1.82507,1.9402 -3.462014,3.989991 -4.933385,6.084686c-9.639477,13.733322 -12.054242,29.412581 -12.054242,29.412581s-2.622474,-17.024224 -13.312167,-31.133796c-1.134289,-1.493724 -2.358585,-2.956787 -3.678229,-4.363471l0.002769,0c-1.471371,-1.460095 -2.751649,-3.111085 -3.804635,-4.913801c-2.091926,-3.568836 -3.290902,-7.721631 -3.290902,-12.155327c0,-4.405409 1.182161,-8.53585 3.248766,-12.087674z"/>
   <path stroke="null" id="svg_8" fill="#7E2D25" d="m77.47004,11.265146c7.078129,0 12.814853,5.740087 12.814853,12.818216s-5.736724,12.814853 -12.814853,12.814853s-12.818216,-5.736724 -12.818216,-12.814853s5.740285,-12.818216 12.818216,-12.818216z"/>
   <g stroke="null" id="svg_9"/>
   <g stroke="null" id="svg_10"/>
   <g stroke="null" id="svg_11"/>
   <g stroke="null" id="svg_12"/>
   <g stroke="null" id="svg_13"/>
   <g stroke="null" id="svg_14"/>
   <g stroke="null" id="svg_15"/>
   <g stroke="null" id="svg_16"/>
   <g stroke="null" id="svg_17"/>
   <g stroke="null" id="svg_18"/>
   <g stroke="null" id="svg_19"/>
   <g stroke="null" id="svg_20"/>
   <g stroke="null" id="svg_21"/>
   <g stroke="null" id="svg_22"/>
   <g stroke="null" id="svg_23"/>
  </g>
 </g>
</svg>